<svg width="82" height="15" viewBox="0 0 82 15" fill="none" xmlns="http://www.w3.org/2000/svg">
<path d="M15.2068 0H0V3.41983H13.6302L15.2068 0Z" fill="white"/>
<path d="M11.1259 9.21048L12.7321 5.79065H3.80169H0V9.21048V15H3.80169V9.21048H11.1259Z" fill="white"/>
<path d="M24.8619 8.68483H24.8452L20.8796 0H16.4447L9.5957 15H13.6386L18.5261 3.74941H18.7982L20.9426 8.68483H17.584C17.0708 9.82477 16.5575 10.9647 16.0455 12.1047H22.3896L23.6869 15H27.7298L24.863 8.72263V8.68483H24.8619Z" fill="white"/>
<path d="M54.2417 9.21056V10.3541C54.2417 12.9198 56.3338 15.0001 58.9142 15.0001H66.9738V11.5802H59.1589C58.496 11.5802 57.959 11.0463 57.959 10.3871V9.20938H66.9726V5.78955H54.2405V9.20938L54.2417 9.21056Z" fill="white"/>
<path d="M55.3965 0H50.629H46.8273H43.7871V3.41983H46.8273V15H50.629V3.41983H53.1785L55.3965 0Z" fill="white"/>
<path d="M54.5364 3.41983H67.4193V0H56.6938L54.5364 3.41983Z" fill="white"/>
<path d="M82 15L75.0714 7.33698L81.7065 0H76.8784L72.3532 5.00512V0H68.5515V15H72.3532V9.67003L77.173 15H82Z" fill="white"/>
<path d="M38.9829 9.3877L32.5556 0H32.3442H31.6504H28.5425V15H32.3442V5.65955L38.6205 15H38.9829H40.6117H42.7846V0H38.9829V9.3877Z" fill="white"/>
</svg>
